<svg width="5" height="5" viewBox="0 0 5 5" fill="none" xmlns="http://www.w3.org/2000/svg">
<circle cx="2.5" cy="2.5" r="2.5" fill="url(#paint0_radial_315_42)"/>
<path d="M2.69034 3.01989C2.57292 3.01989 2.46804 3.00166 2.37571 2.9652C2.28385 2.92874 2.21141 2.87926 2.15838 2.81676C2.10582 2.75426 2.07955 2.68371 2.07955 2.60511C2.07955 2.54498 2.09446 2.49006 2.12429 2.44034C2.15459 2.39062 2.19531 2.34943 2.24645 2.31676C2.29759 2.28362 2.35464 2.26231 2.41761 2.25284V2.24148C2.33475 2.22727 2.26657 2.19058 2.21307 2.13139C2.16004 2.07173 2.13352 2.00142 2.13352 1.92045C2.13352 1.84422 2.15767 1.77652 2.20597 1.71733C2.25426 1.65767 2.32031 1.6108 2.40412 1.5767C2.48793 1.54261 2.58333 1.52557 2.69034 1.52557C2.79735 1.52557 2.89276 1.54285 2.97656 1.57741C3.06037 1.61151 3.12642 1.65838 3.17472 1.71804C3.22301 1.77723 3.24716 1.8447 3.24716 1.92045C3.24716 2.00189 3.22017 2.07221 3.16619 2.13139C3.11222 2.19058 3.04451 2.22727 2.96307 2.24148V2.25284C3.02557 2.26231 3.08239 2.28362 3.13352 2.31676C3.18466 2.34943 3.22538 2.39062 3.25568 2.44034C3.28598 2.49006 3.30114 2.54498 3.30114 2.60511C3.30114 2.68371 3.27462 2.75426 3.22159 2.81676C3.16903 2.87926 3.09659 2.92874 3.00426 2.9652C2.91241 3.00166 2.80777 3.01989 2.69034 3.01989ZM2.69034 2.74716C2.72775 2.74716 2.76089 2.73958 2.78977 2.72443C2.81866 2.70928 2.84138 2.68845 2.85795 2.66193C2.875 2.63494 2.88352 2.60464 2.88352 2.57102C2.88352 2.53741 2.875 2.50758 2.85795 2.48153C2.84138 2.45549 2.81866 2.43513 2.78977 2.42045C2.76089 2.4053 2.72775 2.39773 2.69034 2.39773C2.65341 2.39773 2.62027 2.4053 2.59091 2.42045C2.56203 2.43513 2.53906 2.45549 2.52202 2.48153C2.50545 2.50758 2.49716 2.53741 2.49716 2.57102C2.49716 2.60464 2.50545 2.63471 2.52202 2.66122C2.53906 2.68774 2.56203 2.70881 2.59091 2.72443C2.62027 2.73958 2.65341 2.74716 2.69034 2.74716ZM2.69034 2.125C2.72348 2.125 2.75284 2.11813 2.77841 2.1044C2.80398 2.09067 2.8241 2.07173 2.83878 2.04759C2.85346 2.02344 2.8608 1.99621 2.8608 1.96591C2.8608 1.93561 2.85346 1.90885 2.83878 1.88565C2.8241 1.86198 2.80398 1.84351 2.77841 1.83026C2.75284 1.81652 2.72348 1.80966 2.69034 1.80966C2.65767 1.80966 2.62831 1.81652 2.60227 1.83026C2.5767 1.84351 2.55658 1.86198 2.5419 1.88565C2.52723 1.90885 2.51989 1.93561 2.51989 1.96591C2.51989 1.99621 2.52723 2.02344 2.5419 2.04759C2.55658 2.07126 2.5767 2.0902 2.60227 2.1044C2.62831 2.11813 2.65767 2.125 2.69034 2.125Z" fill="black"/>
<defs>
<radialGradient id="paint0_radial_315_42" cx="0" cy="0" r="1" gradientUnits="userSpaceOnUse" gradientTransform="translate(2.5 2.5) rotate(90) scale(2.5)">
<stop stop-color="white" stop-opacity="0.2"/>
<stop offset="0.5" stop-color="#66FF66"/>
<stop offset="1" stop-color="#00CC00"/>
</radialGradient>
</defs>
</svg>
